<?xml version="1.0" standalone="no"?>
<!DOCTYPE svg PUBLIC "-//W3C//DTD SVG 20010904//EN"
 "http://www.w3.org/TR/2001/REC-SVG-20010904/DTD/svg10.dtd">
<svg version="1.0" xmlns="http://www.w3.org/2000/svg"
 width="150.000000pt" height="150.000000pt" viewBox="0 0 150.000000 150.000000"
 preserveAspectRatio="xMidYMid meet">

<g transform="translate(0.000000,150.000000) scale(0.100000,-0.100000)"
fill="#085d96">
<path d="M621 1429 c-63 -12 -67 -20 -43 -76 17 -40 30 -86 37 -138 1 -5 3
-72 3 -147 l2 -138 45 35 c52 39 97 51 163 40 139 -21 222 28 222 132 0 33 -7
50 -30 76 -61 70 -150 47 -166 -41 -3 -17 42 -46 61 -38 18 7 20 -5 3 -22 -32
-32 -98 10 -98 63 0 78 41 117 127 121 142 6 226 -130 166 -267 -19 -42 -73
-99 -94 -99 -5 0 -9 -19 -9 -43 0 -41 -21 -87 -40 -87 -6 0 -7 20 -3 45 5 41
4 45 -15 45 -47 0 -122 -93 -122 -151 0 -20 4 -21 50 -16 64 8 131 44 220 119
87 73 166 115 231 124 49 7 51 8 45 35 -11 55 -91 171 -169 245 -159 150 -389
222 -586 183z"/>
<path d="M741 936 c-33 -18 -50 -53 -51 -101 l0 -40 55 60 c77 84 83 95 48 95
-15 -1 -39 -7 -52 -14z"/>
<path d="M293 924 c-38 -17 11 -64 65 -64 37 0 53 23 30 46 -16 16 -75 27 -95
18z"/>
<path d="M1310 869 c-19 -12 -85 -70 -146 -129 -146 -141 -206 -172 -340 -178
-52 -3 -94 -8 -94 -13 0 -5 4 -9 9 -9 6 0 52 -42 104 -94 51 -52 113 -104 136
-115 103 -53 191 -31 191 48 0 39 -23 71 -52 71 -8 0 -27 -9 -42 -21 -23 -18
-27 -19 -32 -5 -9 23 21 64 51 72 39 10 76 -4 112 -42 36 -39 57 -100 47 -139
-10 -41 11 -29 49 28 51 77 74 127 97 208 24 87 35 245 20 300 -10 35 -14 39
-43 39 -18 0 -48 -10 -67 -21z"/>
<path d="M365 491 c-72 -18 -115 -62 -122 -123 -9 -81 69 -154 152 -144 42 5
75 34 75 67 0 22 -37 49 -68 49 -21 0 -22 2 -12 15 7 9 29 15 50 15 30 0 44
-6 64 -31 46 -55 27 -136 -44 -188 l-41 -30 29 -15 c107 -55 308 -74 447 -42
76 18 193 71 239 109 l30 24 -56 -5 c-99 -8 -213 43 -343 153 -27 24 -72 57
-100 74 -85 54 -232 89 -300 72z"/>
</g>
</svg>
